<?xml version="1.0" encoding="UTF-8"?>
<svg id="Layer_3" data-name="Layer 3" xmlns="http://www.w3.org/2000/svg" viewBox="0 0 730.07 915.76">
  <defs>
    <style>
      .cls-1 {
        fill: none;
        stroke: #231f20;
        stroke-miterlimit: 10;
      }
    </style>
  </defs>
  <g>
    <path class="cls-1" d="m516.03,204.16h-44.89s-25.34,20.22-25.34,20.22c-11.44,9.13-27.68,9.13-39.12,0l-25.34-20.22h-44.89m89.79,0h-44.89"/>
    <path class="cls-1" d="m426.12,48.71l22.48,38.86,30.19,11.81c13.63,5.33,21.76,19.39,19.58,33.86l-4.82,32.06,22.48,38.86m-44.96-77.72l22.48,38.86"/>
    <path class="cls-1" d="m336.42,204.28l22.43-38.89-4.86-32.05c-2.2-14.47,5.91-28.54,19.54-33.89l30.18-11.85,22.43-38.89m-44.85,77.79l22.43-38.89"/>
  </g>
  <g>
    <path class="cls-1" d="m280.94,360.63h-44.89s-25.34,20.22-25.34,20.22c-11.44,9.13-27.68,9.13-39.12,0l-25.34-20.22h-44.89m89.79,0h-44.89"/>
    <path class="cls-1" d="m280.66,181.05l.07,44.89,20.26,25.31c9.15,11.43,9.17,27.66.06,39.12l-20.18,25.37.07,44.89m-.14-89.79l.07,44.89"/>
    <path class="cls-1" d="m101.4,360.63l.04-44.89-20.2-25.36c-9.12-11.45-9.11-27.68.04-39.12l20.25-25.32.04-44.89m-.08,89.79l.04-44.89"/>
    <path class="cls-1" d="m101.35,181.53l44.89-.04,25.32-20.25c11.43-9.14,27.67-9.16,39.12-.04l25.36,20.2,44.89-.04m-89.79.08l44.89-.04"/>
  </g>
  <g>
    <path class="cls-1" d="m531.92,524.67h-44.89s-25.34,20.22-25.34,20.22c-11.44,9.13-27.68,9.13-39.12,0l-25.34-20.22h-44.89m89.79,0h-44.89"/>
    <path class="cls-1" d="m587.27,353.83l-13.84,42.71,11.43,30.34c5.16,13.7.16,29.14-12.06,37.21l-27.05,17.87-13.84,42.71m27.68-85.42l-13.84,42.71"/>
    <path class="cls-1" d="m352.31,524.79l-13.83-42.71-27.05-17.87c-12.21-8.07-17.21-23.52-12.05-37.21l11.43-30.34-13.83-42.71m27.66,85.42l-13.83-42.71"/>
    <path class="cls-1" d="m442,248.39l36.32,26.39,32.39-1.47c14.62-.66,27.76,8.88,31.64,22.99l8.61,31.25,36.32,26.39m-72.64-52.78l36.32,26.39"/>
    <path class="cls-1" d="m296.82,353.93l36.32-26.38,8.61-31.25c3.89-14.11,17.03-23.65,31.65-22.99l32.39,1.47,36.32-26.38m-72.65,52.77l36.32-26.38"/>
  </g>
  <g>
    <path class="cls-1" d="m321.38,817.27h-44.89s-25.34,20.22-25.34,20.22c-11.44,9.13-27.68,9.13-39.12,0l-25.34-20.22h-44.89m89.79,0h-44.89"/>
    <path class="cls-1" d="m411.54,661.97l-22.54,38.83,4.77,32.07c2.15,14.48-6,28.52-19.64,33.83l-30.21,11.76-22.54,38.83m45.08-77.65l-22.54,38.83"/>
    <path class="cls-1" d="m141.77,817.4l-22.5-38.85-30.2-11.79c-13.63-5.32-21.77-19.37-19.6-33.85l4.8-32.06-22.5-38.85m45,77.7l-22.5-38.85"/>
    <path class="cls-1" d="m141.91,506.63l44.89.02,25.34-20.22c11.44-9.13,27.68-9.12,39.12.01l25.33,20.23,44.89.02m-89.79-.03l44.89.02"/>
    <path class="cls-1" d="m51.7,661.9l22.55-38.82-4.76-32.07c-2.15-14.48,6.01-28.52,19.65-33.82l30.21-11.75,22.55-38.82m-45.1,77.64l22.55-38.82"/>
    <path class="cls-1" d="m321.52,506.57l22.49,38.86,30.19,11.8c13.63,5.33,21.77,19.38,19.59,33.86l-4.81,32.06,22.49,38.86m-44.97-77.72l22.49,38.86"/>
  </g>
</svg>